<?xml version="1.0" standalone="no"?>
<!DOCTYPE svg PUBLIC "-//W3C//DTD SVG 20010904//EN"
 "http://www.w3.org/TR/2001/REC-SVG-20010904/DTD/svg10.dtd">
<svg version="1.0" xmlns="http://www.w3.org/2000/svg"
 width="210" height="80" viewBox="0 0 460.000000 393.000000"
 preserveAspectRatio="xMidYMid meet">

<g transform="translate(0.000000,393.000000) scale(0.100000,-0.100000)"
fill="#000000" stroke="none">
<path d="M2246 3779 c-12 -29 -14 -45 -7 -52 16 -16 13 -56 -4 -74 -9 -8 -13
-23 -10 -33 4 -13 0 -20 -14 -25 -20 -6 -31 -32 -31 -77 0 -18 -5 -28 -15 -28
-9 0 -15 -9 -15 -24 0 -13 7 -29 15 -36 11 -10 15 -36 15 -111 l0 -98 -75 -22
-75 -22 0 -43 c0 -43 1 -44 44 -56 57 -17 96 -51 96 -83 0 -24 -3 -25 -60 -25
-33 0 -60 4 -60 10 0 6 -9 10 -20 10 -11 0 -20 -4 -20 -10 0 -6 -32 -10 -75
-10 -58 0 -75 -3 -75 -14 0 -14 -403 -256 -426 -256 -10 0 -3 189 6 195 7 4 4
13 -9 24 -11 9 -19 26 -18 36 1 12 -4 20 -13 20 -10 0 -14 -8 -13 -22 2 -14
-5 -28 -17 -35 -15 -9 -16 -15 -8 -26 14 -17 24 -177 11 -185 -8 -5 -71 12
-128 34 -45 18 -202 71 -222 76 -27 6 -32 35 -5 31 11 -2 17 3 17 17 0 19 -7
20 -250 20 l-250 0 -3 -30 c-2 -24 -28 -55 -112 -138 -95 -95 -113 -109 -145
-110 l-36 -2 35 -32 34 -32 -1 -393 -2 -393 -87 -3 -88 -3 0 -44 0 -45 -49 0
c-51 0 -64 -11 -55 -48 5 -19 27 -19 1130 -26 618 -5 1630 -5 2249 0 l1125 7
0 33 0 34 -50 0 -50 0 0 45 0 45 -90 0 -90 0 0 398 0 399 25 23 c30 29 32 40
4 33 -17 -5 -45 19 -140 113 -66 65 -119 126 -118 134 4 41 8 40 -251 40
l-250 0 0 -24 c0 -19 4 -23 20 -19 13 3 20 0 20 -8 0 -9 -48 -30 -133 -57 -72
-23 -135 -42 -139 -43 -4 0 -26 -6 -49 -14 -23 -8 -46 -15 -51 -15 -11 0 -9
158 3 181 6 11 4 21 -7 29 -8 7 -14 20 -12 29 1 9 -1 22 -6 29 -11 18 -37 -4
-29 -24 3 -8 -2 -23 -11 -33 -10 -11 -13 -22 -8 -25 5 -3 10 -49 11 -102 2
-87 0 -96 -15 -90 -58 22 -424 239 -424 252 0 11 -17 14 -80 14 -47 0 -80 4
-80 10 0 6 -9 10 -20 10 -11 0 -20 -4 -20 -10 0 -5 -23 -10 -51 -10 -43 0 -50
3 -45 16 3 9 6 24 6 35 0 10 6 19 14 19 8 0 16 6 19 13 2 7 25 18 51 25 46 12
46 12 46 56 l0 43 -75 22 -75 23 0 98 c0 74 4 100 15 110 19 16 20 60 1 60 -9
0 -15 16 -19 47 -3 28 -11 50 -21 55 -11 6 -15 17 -11 28 3 10 -1 25 -10 33
-17 18 -21 77 -4 77 8 0 8 4 1 13 -5 6 -13 27 -17 45 -5 25 -12 32 -30 32 -17
0 -27 -10 -39 -41z m52 -92 c2 -19 -1 -27 -12 -27 -11 0 -16 10 -16 31 0 38
24 35 28 -4z m16 -303 c12 -11 16 -36 16 -90 l0 -75 -47 3 -48 3 -3 69 c-2 53
1 72 14 87 21 23 47 24 68 3z m-94 -84 c0 -40 -4 -70 -10 -70 -6 0 -10 30 -10
70 0 40 4 70 10 70 6 0 10 -30 10 -70z m140 0 c0 -40 -4 -70 -10 -70 -6 0 -10
30 -10 70 0 40 4 70 10 70 6 0 10 -30 10 -70z m-1639 -492 l39 -31 0 -74 0
-73 -85 0 -85 0 -2 60 c-1 33 -2 67 -2 74 -1 14 70 75 87 76 5 0 26 -14 48
-32z m225 0 l44 -31 0 -74 0 -73 -90 0 -90 0 0 74 0 74 42 31 c23 17 44 31 46
31 2 0 24 -14 48 -32z m2759 0 c25 -19 42 -39 40 -46 -3 -8 -5 -40 -5 -73 l0
-59 -85 0 -85 0 0 74 0 74 42 31 c23 17 43 31 45 31 2 0 24 -15 48 -32z m229
-2 l41 -33 -3 -72 -4 -71 -83 0 -83 0 -4 71 -3 72 40 33 c22 19 44 34 49 34 5
0 27 -15 50 -34z m-2144 5 c5 -11 10 -31 10 -45 0 -22 -4 -26 -30 -26 -28 0
-30 2 -30 38 0 21 3 42 7 45 12 13 32 7 43 -12z m510 0 c5 -11 10 -31 10 -45
0 -22 -4 -26 -30 -26 -28 0 -30 2 -30 38 0 21 3 42 7 45 12 13 32 7 43 -12z
m520 -32 c0 -35 -3 -39 -25 -39 -22 0 -25 4 -25 39 0 39 12 53 38 43 7 -2 12
-21 12 -43z m-770 -10 c0 -24 -4 -29 -25 -29 -21 0 -25 5 -25 29 0 16 6 31 13
34 23 8 37 -5 37 -34z m508 3 c3 -28 0 -32 -22 -32 -22 0 -26 5 -26 29 0 51
43 53 48 3z m-804 -68 c3 -9 6 -33 6 -55 0 -38 -1 -39 -35 -39 l-35 0 0 48 c0
27 3 52 7 55 12 13 51 7 57 -9z m86 -24 c9 -54 2 -70 -31 -70 -28 0 -29 2 -29
48 0 55 5 64 35 60 14 -2 21 -13 25 -38z m428 -17 l3 -53 -35 0 -36 0 0 48 c0
56 5 64 40 60 23 -3 25 -8 28 -55z m83 50 c0 -5 3 -29 5 -55 l5 -48 -35 0 -36
0 0 48 c0 27 3 52 7 55 9 9 53 9 54 0z m438 -48 l2 -55 -35 0 -36 0 0 48 c0
56 4 62 40 62 25 0 27 -3 29 -55z m79 -2 l3 -53 -30 0 c-27 0 -31 4 -32 28 -3
64 5 84 33 80 20 -3 23 -10 26 -55z m-1248 -293 l0 -170 -25 0 -25 0 0 170 0
170 25 0 25 0 0 -170z m272 8 c2 -90 0 -167 -5 -173 -11 -14 -28 15 -21 38 3
11 0 17 -10 17 -11 0 -16 -9 -16 -30 0 -20 -5 -30 -15 -30 -10 0 -15 10 -15
30 0 20 -5 30 -15 30 -10 0 -15 -10 -15 -31 0 -20 -4 -29 -12 -26 -7 2 -13 16
-13 30 1 18 -4 27 -15 27 -13 0 -15 -7 -12 -30 3 -23 0 -30 -12 -30 -11 0 -16
9 -16 30 0 20 -5 30 -15 30 -10 0 -15 -10 -15 -30 0 -19 -5 -30 -14 -30 -12 0
-15 30 -15 170 l-1 170 124 0 124 0 4 -162z m78 -8 l0 -170 -30 0 -30 0 0 170
0 170 30 0 30 0 0 -170z m160 0 l0 -170 -25 0 -25 0 0 170 0 170 25 0 25 0 0
-170z m277 -2 c1 -139 -1 -168 -13 -168 -9 0 -14 11 -14 30 0 20 -5 30 -15 30
-10 0 -15 -10 -15 -30 0 -21 -5 -30 -16 -30 -12 0 -15 7 -12 30 3 23 1 30 -12
30 -11 0 -16 -9 -15 -27 0 -14 -6 -28 -12 -30 -9 -3 -13 6 -13 26 0 21 -5 31
-15 31 -10 0 -15 -10 -15 -30 0 -20 -5 -30 -15 -30 -10 0 -15 10 -15 30 0 20
-5 30 -15 30 -10 0 -15 -10 -15 -31 0 -20 -4 -29 -12 -27 -10 4 -14 49 -16
172 l-3 167 128 -3 128 -3 2 -167z m73 1 l0 -170 -26 3 -27 3 1 160 c1 88 1
163 2 168 0 4 11 7 25 7 l25 0 0 -171z m170 1 l0 -170 -25 0 -25 0 0 170 0
170 25 0 25 0 0 -170z m270 -1 c0 -132 -3 -170 -12 -166 -7 2 -13 16 -13 30 1
18 -4 27 -15 27 -13 0 -15 -7 -12 -30 3 -23 0 -30 -12 -30 -11 0 -16 9 -16 30
0 20 -5 30 -15 30 -10 0 -15 -10 -15 -30 0 -21 -5 -30 -16 -30 -12 0 -15 7
-12 30 3 23 1 30 -12 30 -11 0 -16 -9 -15 -27 0 -18 -5 -28 -15 -28 -10 0 -15
10 -15 28 1 18 -4 27 -15 27 -13 0 -15 -7 -12 -30 3 -23 0 -30 -12 -30 -14 0
-16 20 -16 170 l0 170 125 0 125 0 0 -171z m70 1 l0 -170 -25 0 -25 0 0 170 0
170 25 0 25 0 0 -170z m-2492 108 l42 -32 0 -79 0 -78 -92 3 -93 3 -3 76 -3
77 43 31 c23 17 47 31 53 31 6 0 30 -14 53 -32z m229 0 c32 -25 42 -38 38 -53
-3 -11 -5 -46 -5 -77 l0 -58 -90 0 -90 0 0 78 c0 82 1 84 60 125 33 23 36 22
87 -15z m196 22 c7 -6 24 -19 40 -31 25 -19 27 -25 27 -100 l0 -79 -90 0 -90
0 0 79 c0 78 0 80 33 102 17 13 34 27 35 31 5 11 31 10 45 -2z m258 -21 l39
-31 0 -79 0 -79 -89 0 -89 0 -4 78 c-3 48 0 80 6 84 39 26 50 34 60 45 18 19
35 15 77 -18z m280 21 c16 -9 19 -22 19 -75 l0 -65 -55 0 -55 0 0 65 c0 50 4
66 18 74 22 13 48 14 73 1z m1730 0 c16 -9 19 -22 19 -75 l0 -65 -55 0 -55 0
0 69 c0 46 4 71 13 74 21 9 58 7 78 -3z m290 -22 l39 -31 0 -79 0 -78 -89 0
-89 0 -4 78 c-3 48 0 80 6 84 6 3 25 18 41 32 38 33 48 33 96 -6z m201 24 c2
-4 18 -18 36 -31 32 -22 32 -24 32 -102 l0 -79 -89 0 -89 0 -4 78 c-2 42 -1
78 3 80 4 2 23 16 41 32 32 29 63 38 70 22z m258 -33 l35 -27 -3 -76 -4 -77
-85 3 -85 3 0 75 0 75 42 32 c45 35 46 35 100 -8z m227 9 c32 -25 42 -38 38
-53 -3 -11 -5 -46 -5 -77 l0 -58 -90 0 -90 0 0 79 0 79 38 31 c20 17 43 30 51
31 8 0 34 -15 58 -32z m-2700 -144 c2 -7 -14 -11 -42 -11 -43 0 -58 10 -32 21
20 8 70 2 74 -10z m1730 0 c2 -6 -13 -9 -39 -8 -56 3 -56 3 -38 14 19 13 72 9
77 -6z m-2657 -199 l0 -75 -95 0 -95 0 0 68 c0 38 3 72 7 75 3 4 46 7 95 7
l88 0 0 -75z m220 0 l0 -76 -87 3 -88 3 -3 59 c-5 87 -5 86 93 86 l85 0 0 -75z
m230 0 l0 -75 -90 0 -90 0 0 75 0 75 90 0 90 0 0 -75z m228 -2 l3 -73 -91 0
-90 0 0 75 0 76 88 -3 87 -3 3 -72z m2300 0 l3 -73 -91 0 -90 0 0 75 0 76 88
-3 87 -3 3 -72z m230 0 l3 -73 -91 0 -90 0 0 75 0 76 88 -3 87 -3 3 -72z m222
2 l0 -75 -85 0 -85 0 0 75 0 75 85 0 85 0 0 -75z m230 0 l0 -75 -90 0 -90 0 0
68 c0 38 3 72 7 75 3 4 44 7 90 7 l83 0 0 -75z m-1022 29 c26 -18 28 -31 5
-56 -21 -23 -45 -23 -67 1 -23 26 -4 64 34 70 3 1 16 -6 28 -15z m-1710 -26
c6 -49 -68 -64 -83 -17 -10 29 13 51 49 47 25 -2 32 -8 34 -30z m417 -18 c20
-13 47 -23 58 -24 20 -1 22 -7 25 -68 l3 -68 -31 0 c-29 0 -30 2 -30 43 0 29
-6 49 -17 59 -102 89 -273 44 -273 -72 0 -31 -3 -38 -17 -35 -10 2 -22 4 -26
4 -4 1 -7 31 -5 69 3 60 5 67 23 67 12 0 34 8 50 19 44 29 75 36 142 32 42 -2
73 -11 98 -26z m506 1 c30 -15 62 -27 72 -25 15 2 17 -7 17 -67 0 -67 -1 -69
-25 -69 -22 0 -25 4 -25 39 0 98 -166 148 -255 77 -22 -18 -30 -34 -34 -72 -5
-44 -9 -49 -31 -49 -24 0 -25 2 -25 70 0 64 2 70 21 70 11 1 34 9 49 19 69 45
159 48 236 7z m514 -1 c31 -16 63 -30 70 -30 15 0 22 -37 16 -92 -3 -32 -7
-38 -27 -38 -22 0 -24 4 -24 43 0 49 -14 67 -73 92 -100 42 -217 -13 -217
-101 0 -30 -3 -34 -25 -34 -24 0 -25 2 -25 65 0 60 2 65 22 65 12 0 29 7 39
16 56 51 163 57 244 14z m-23 -56 c39 -20 49 -65 47 -213 l-1 -131 -129 0
-129 0 0 155 c0 147 1 155 22 175 13 11 34 23 48 26 14 3 30 7 35 9 16 6 78
-7 107 -21z m-1033 2 c43 -23 51 -54 51 -206 l0 -140 -130 0 -130 0 0 146 c0
80 5 154 10 164 25 46 139 67 199 36z m511 -1 c16 -8 34 -24 40 -34 5 -11 10
-85 10 -165 l0 -146 -130 0 -130 0 0 146 c0 80 5 154 10 164 25 47 139 67 200
35z m-880 -187 l0 -158 -55 0 -55 0 0 153 c0 85 2 156 4 158 2 2 27 4 55 4
l51 0 0 -157z m1728 -1 l3 -158 -58 3 -58 3 -3 135 c-4 183 -4 182 61 178 l52
-3 3 -158z m-2668 8 l0 -136 -92 3 -93 3 -3 110 c-4 163 -9 155 98 155 l90 0
0 -135z m220 0 l0 -135 -85 0 -85 0 0 135 0 135 85 0 85 0 0 -135z m230 0 l0
-135 -90 0 -90 0 0 135 0 135 90 0 90 0 0 -135z m228 -2 l3 -133 -91 0 -90 0
0 135 0 136 88 -3 87 -3 3 -132z m2297 2 l0 -130 -87 -3 -88 -3 0 136 0 136
88 -3 87 -3 0 -130z m230 0 l0 -130 -87 -3 -88 -3 0 136 0 136 88 -3 87 -3 0
-130z m225 0 l0 -135 -85 0 -85 0 0 135 0 135 85 0 85 0 0 -135z m230 0 l0
-136 -87 3 -88 3 -1 115 c0 63 1 123 4 133 4 14 17 17 88 17 l84 0 0 -135z"/>
<path d="M3670 1422 c9 -19 8 -28 -7 -49 -45 -63 -53 -80 -54 -113 0 -29 -2
-31 -9 -15 -16 38 -11 91 13 121 l22 29 -32 -23 c-58 -41 -73 -78 -57 -139 6
-22 10 -23 125 -23 l118 0 6 33 c4 21 1 46 -8 68 -14 31 -15 32 -16 9 -1 -26
-45 -100 -60 -100 -5 0 0 17 10 37 31 60 25 97 -22 146 -26 27 -36 34 -29 19z"/>
<path d="M355 1386 c-86 -21 -144 -53 -204 -113 -76 -77 -102 -143 -109 -274
-7 -149 27 -240 118 -323 92 -83 196 -111 385 -103 172 7 190 14 209 80 30
106 30 107 7 107 -12 0 -21 -5 -21 -10 0 -23 -84 -100 -128 -117 -103 -39
-232 -16 -315 57 -82 71 -129 237 -108 379 29 197 137 289 330 279 137 -7 179
-37 197 -140 4 -27 11 -38 24 -38 14 0 18 13 23 73 4 39 10 88 13 108 l6 36
-92 6 c-137 10 -278 7 -335 -7z"/>
<path d="M1083 1161 c-103 -35 -173 -102 -203 -195 -18 -56 -9 -181 18 -232
22 -44 84 -104 129 -127 126 -64 315 -36 416 61 164 158 97 433 -121 498 -63
19 -176 17 -239 -5z m196 -52 c83 -47 126 -149 119 -280 -4 -64 -10 -87 -34
-125 -35 -56 -83 -84 -144 -84 -137 1 -230 132 -217 306 5 73 29 135 64 166
56 51 141 58 212 17z"/>
<path d="M2558 1166 c-140 -40 -221 -150 -222 -297 0 -132 62 -223 184 -271
46 -18 74 -22 170 -21 155 1 171 7 192 69 21 63 21 74 3 74 -8 0 -15 -4 -15
-8 0 -5 -15 -25 -34 -44 -74 -76 -208 -74 -291 5 -57 55 -79 128 -73 236 7
121 54 191 146 217 37 11 69 14 105 9 78 -11 104 -28 118 -78 7 -23 16 -46 20
-51 12 -13 25 30 33 104 l6 65 -148 2 c-99 2 -162 -2 -194 -11z"/>
<path d="M4083 1166 c-136 -44 -218 -154 -217 -291 0 -125 53 -214 157 -265
180 -88 400 -21 479 145 52 110 34 233 -48 324 -61 68 -124 94 -239 98 -57 2
-105 -2 -132 -11z m150 -37 c53 -14 110 -69 138 -132 30 -69 33 -214 5 -267
-40 -76 -89 -110 -160 -110 -60 0 -94 14 -139 58 -50 49 -77 123 -77 215 0 95
14 140 57 188 49 54 103 69 176 48z"/>
<path d="M1590 1155 c0 -10 10 -15 28 -15 35 0 48 -9 61 -43 21 -56 6 -432
-19 -462 -7 -8 -28 -17 -46 -21 -19 -4 -33 -11 -31 -18 5 -14 267 -16 267 -1
1 6 -16 13 -37 18 -61 12 -63 20 -63 221 l0 179 149 -154 c82 -86 175 -186
207 -223 83 -97 90 -92 86 74 -1 74 1 192 6 262 9 138 19 164 70 170 14 2 27
9 30 16 3 9 -28 12 -133 12 -105 0 -136 -3 -133 -12 3 -7 22 -16 42 -19 21 -3
42 -12 46 -19 12 -19 22 -269 12 -309 l-7 -34 -154 159 c-84 87 -165 176 -180
196 l-26 38 -87 0 c-72 0 -88 -3 -88 -15z"/>
<path d="M2960 1156 c0 -9 12 -16 33 -18 31 -3 32 -5 40 -58 4 -30 5 -143 2
-250 -6 -210 -9 -220 -62 -220 -14 0 -23 -6 -23 -15 0 -13 34 -15 244 -15
l244 0 16 48 c19 58 24 114 11 118 -5 2 -21 -17 -35 -43 -14 -26 -36 -53 -50
-60 -34 -17 -209 -17 -215 0 -3 6 -6 59 -8 117 l-2 105 67 3 c97 4 131 -7 143
-46 5 -18 15 -32 22 -32 10 0 13 25 13 100 0 82 -3 100 -15 100 -9 0 -15 -9
-15 -25 0 -42 -36 -56 -131 -53 l-84 3 -3 87 c-4 126 -2 128 116 128 111 0
142 -13 142 -58 0 -34 16 -60 28 -47 5 6 12 40 16 78 l7 67 -251 0 c-211 0
-250 -2 -250 -14z"/>
<path d="M3520 1158 c0 -8 15 -14 36 -15 20 -1 42 -7 48 -13 16 -16 13 -583
-3 -632 -14 -44 -39 -52 -96 -32 -49 16 -71 11 -80 -17 -16 -51 64 -66 143
-27 51 26 137 117 147 156 4 15 10 143 13 284 4 152 11 261 17 267 9 9 38 17
68 20 5 1 5 6 2 11 -10 16 -295 13 -295 -2z"/>
<path d="M40 420 c0 -7 552 -10 1635 -10 1083 0 1635 3 1635 10 0 7 -552 10
-1635 10 -1083 0 -1635 -3 -1635 -10z"/>
<path d="M3775 420 c-4 -7 118 -10 360 -10 242 0 364 3 360 10 -4 6 -135 10
-360 10 -225 0 -356 -4 -360 -10z"/>
<path d="M70 190 l0 -130 25 0 c24 0 25 2 25 70 0 87 16 92 57 20 l30 -51 17
23 c9 13 25 38 36 56 30 50 40 40 40 -43 0 -74 0 -75 25 -75 l26 0 -3 128 c-3
118 -4 127 -23 130 -15 2 -30 -13 -60 -63 -40 -67 -68 -82 -80 -45 -3 11 -11
20 -16 20 -5 0 -9 5 -9 11 0 20 -53 79 -71 79 -18 0 -19 -9 -19 -130z"/>
<path d="M417 314 c-4 -4 -7 -40 -7 -81 0 -120 35 -173 115 -173 91 0 129 57
123 185 -3 67 -4 70 -28 70 -25 0 -25 -1 -28 -89 -2 -50 -8 -96 -14 -103 -6
-7 -27 -13 -48 -13 -21 0 -42 6 -48 13 -6 7 -12 53 -14 103 -3 81 -5 89 -23
92 -12 2 -24 0 -28 -4z"/>
<path d="M717 313 c-4 -3 -7 -62 -7 -130 l0 -123 25 0 c14 0 25 6 26 13 0 6 0
40 1 75 0 88 7 85 107 -35 25 -31 51 -53 62 -53 19 0 19 7 17 127 l-3 128 -25
0 c-24 0 -24 -2 -23 -67 2 -79 -10 -93 -44 -52 -105 126 -117 136 -136 117z"/>
<path d="M1020 190 l0 -130 25 0 25 0 0 130 0 130 -25 0 -25 0 0 -130z"/>
<path d="M1215 308 c-42 -13 -78 -68 -78 -118 0 -53 36 -104 84 -120 64 -22
151 4 130 39 -7 10 -13 11 -29 2 -32 -17 -77 -13 -106 10 -21 17 -26 29 -26
65 0 70 57 110 120 84 29 -12 50 -7 50 11 0 13 -63 39 -92 38 -13 -1 -37 -5
-53 -11z"/>
<path d="M1427 314 c-4 -4 -7 -63 -7 -131 l0 -123 25 0 c25 0 25 0 26 98 1 53
2 111 3 127 1 23 -4 31 -19 33 -12 2 -24 0 -28 -4z"/>
<path d="M1544 307 c-2 -7 -3 -65 -2 -128 l3 -114 28 -3 c25 -3 27 -1 27 32 0
32 3 36 28 38 15 0 32 2 37 3 6 2 17 3 26 4 26 2 69 51 69 80 0 36 -26 70 -66
87 -43 18 -143 19 -150 1z m144 -49 c7 -7 12 -21 12 -33 0 -31 -19 -45 -62
-45 l-38 0 0 45 0 45 38 0 c21 0 43 -5 50 -12z"/>
<path d="M1853 283 c-8 -21 -23 -56 -33 -78 -40 -92 -60 -138 -60 -142 0 -2
12 -3 28 -1 19 2 28 9 30 25 3 22 7 23 74 20 63 -2 72 -5 79 -25 6 -15 17 -22
34 -22 14 0 25 1 25 3 0 2 -23 55 -51 117 -28 63 -53 121 -56 128 -3 6 -16 12
-30 12 -18 0 -28 -9 -40 -37z m71 -80 c9 -26 16 -50 16 -55 0 -4 -20 -8 -45
-8 -29 0 -45 4 -45 12 0 26 33 98 45 98 7 0 20 -21 29 -47z"/>
<path d="M2087 313 c-4 -3 -7 -62 -7 -130 l0 -123 95 0 c87 0 95 2 95 19 0 24
-15 30 -57 23 -18 -2 -44 -1 -58 2 -26 7 -26 8 -25 94 2 123 2 122 -18 122
-10 0 -22 -3 -25 -7z"/>
<path d="M2437 313 c-4 -3 -7 -62 -7 -130 l0 -123 68 1 c88 0 131 16 159 58
49 72 18 160 -66 189 -36 13 -143 16 -154 5z m170 -65 c30 -28 32 -89 4 -117
-21 -21 -75 -35 -108 -29 -15 3 -18 15 -21 86 l-3 82 52 0 c40 0 58 -5 76 -22z"/>
<path d="M2749 310 c-1 -5 -1 -19 -1 -30 0 -11 0 -65 1 -120 l1 -100 100 0
c93 0 100 1 100 20 0 18 -7 20 -75 20 l-75 0 0 35 0 35 65 0 c58 0 65 2 65 20
0 18 -7 20 -65 20 l-65 0 0 35 0 35 76 0 c66 0 75 2 72 18 -3 14 -17 17 -101
20 -61 2 -97 -1 -98 -8z"/>
<path d="M3130 190 l0 -130 96 0 c93 0 95 1 92 22 -3 20 -9 22 -68 23 l-65 0
-3 108 c-3 106 -3 107 -27 107 l-25 0 0 -130z"/>
<path d="M3462 308 c-9 -13 -30 -56 -72 -155 -12 -27 -25 -56 -30 -65 -15 -26
-13 -30 18 -26 19 2 28 9 30 25 3 19 9 21 77 22 70 1 73 0 79 -24 5 -18 13
-25 31 -25 14 0 25 2 25 4 0 9 -62 153 -81 189 -11 20 -17 37 -13 37 3 0 1 7
-6 15 -15 18 -44 19 -58 3z m52 -98 c25 -63 22 -70 -29 -70 -29 0 -45 4 -45
12 0 24 35 98 46 98 7 0 19 -18 28 -40z"/>
<path d="M3789 311 c-1 -6 -1 -20 -1 -31 0 -213 1 -220 27 -220 22 0 25 4 25
34 0 34 1 35 53 41 28 4 59 12 68 18 47 35 48 108 2 141 -31 23 -172 37 -174
17z m145 -63 c24 -33 1 -62 -53 -66 l-41 -3 0 45 0 46 39 0 c30 0 44 -6 55
-22z"/>
<path d="M4101 298 c-5 -13 -30 -70 -55 -127 -25 -57 -46 -105 -46 -107 0 -2
11 -4 25 -4 18 0 26 7 31 24 6 23 10 25 79 24 67 -1 74 -2 77 -22 2 -15 11
-22 31 -24 34 -4 33 2 -18 113 -18 38 -40 87 -48 108 -13 29 -21 37 -42 37
-17 0 -28 -7 -34 -22z m63 -91 c24 -63 22 -67 -29 -67 -33 0 -45 4 -45 15 0
27 32 95 45 95 7 0 20 -19 29 -43z"/>
<path d="M4320 295 c0 -24 2 -25 60 -25 69 0 77 -14 35 -56 -14 -14 -25 -27
-25 -30 0 -3 -18 -26 -40 -51 -61 -70 -58 -73 70 -73 103 0 110 1 110 20 0 16
-7 20 -37 21 -73 2 -86 4 -90 15 -2 7 3 19 12 27 8 9 15 18 15 21 0 6 14 23
72 90 47 53 37 61 -80 64 l-102 3 0 -26z"/>
</g>
</svg>
